<svg width="14" height="20" viewBox="0 0 14 20" fill="none" xmlns="http://www.w3.org/2000/svg">
<path d="M1.99902 19.3223C2.47363 19.3223 2.78125 19.0762 3.52832 18.3467L6.9209 14.9893C6.95605 14.9453 7.03516 14.9453 7.07031 14.9893L10.4717 18.3467C11.2188 19.0762 11.5176 19.3223 12.001 19.3223C12.7041 19.3223 13.1436 18.8389 13.1436 18.0479V2.70215C13.1436 0.953125 12.2295 0.0302734 10.498 0.0302734H3.49316C1.76172 0.0302734 0.847656 0.953125 0.847656 2.70215V18.0479C0.847656 18.8389 1.28711 19.3223 1.99902 19.3223ZM2.83398 16.4307C2.71973 16.5449 2.5791 16.5098 2.5791 16.3428V2.81641C2.5791 2.11328 2.93066 1.77051 3.63379 1.77051H10.3574C11.0605 1.77051 11.4121 2.11328 11.4121 2.81641V16.3428C11.4121 16.5098 11.2803 16.5449 11.1572 16.4307L7.58008 12.9678C7.21094 12.5986 6.78906 12.5986 6.41113 12.9678L2.83398 16.4307Z" fill="#1C1C1E"/>
</svg>
