<svg width="22" height="22" viewBox="0 0 22 22" fill="none" xmlns="http://www.w3.org/2000/svg">
<path d="M20.3311 9.51672L20.234 9.10465H11.2776V12.8954H16.6289C16.0733 15.5336 13.4952 16.9224 11.3893 16.9224C9.85703 16.9224 8.24184 16.2779 7.17277 15.2419C6.60874 14.6866 6.15977 14.0254 5.85157 13.2964C5.54337 12.5673 5.38199 11.7846 5.37668 10.9931C5.37668 9.39641 6.09426 7.79926 7.1384 6.74867C8.18254 5.69809 9.75949 5.11027 11.3274 5.11027C13.1231 5.11027 14.41 6.06375 14.8912 6.49859L17.585 3.81906C16.7948 3.12469 14.624 1.375 11.2406 1.375C8.63027 1.375 6.12734 2.37488 4.29773 4.19848C2.49219 5.99414 1.55762 8.59074 1.55762 11C1.55762 13.4093 2.44191 15.8761 4.1916 17.6859C6.06117 19.6161 8.70891 20.625 11.4353 20.625C13.9159 20.625 16.2671 19.653 17.9429 17.8896C19.5903 16.1537 20.4424 13.7517 20.4424 11.2338C20.4424 10.1737 20.3358 9.54422 20.3311 9.51672V9.51672Z" fill="#282828"/>
</svg>
