<svg width="20" height="20" viewBox="0 0 20 20" fill="none" xmlns="http://www.w3.org/2000/svg">
<path d="M0 4C0 1.79086 1.79086 0 4 0H16C18.2091 0 20 1.79086 20 4V16C20 18.2091 18.2091 20 16 20H4C1.79086 20 0 18.2091 0 16V4Z" fill="#DEF8F6"/>
<path d="M10 9.8912C11.5193 9.8912 12.7497 8.54773 12.7497 6.90292C12.7497 5.28322 11.5193 3.99625 10 3.99625C8.48704 3.99625 7.24402 5.30205 7.2503 6.91547C7.25657 8.554 8.48077 9.8912 10 9.8912ZM10 8.79256C9.13367 8.79256 8.39915 7.97016 8.39915 6.91547C8.39287 5.88589 9.12739 5.09488 10 5.09488C10.8789 5.09488 11.6009 5.87334 11.6009 6.90292C11.6009 7.9576 10.8726 8.79256 10 8.79256ZM6.08261 15.7296H13.9112C14.9972 15.7296 15.5183 15.3844 15.5183 14.6436C15.5183 12.9171 13.365 10.6194 10 10.6194C6.63506 10.6194 4.47546 12.9171 4.47546 14.6436C4.47546 15.3844 4.99653 15.7296 6.08261 15.7296ZM5.88799 14.631C5.73732 14.631 5.68082 14.5808 5.68082 14.4678C5.68082 13.5073 7.23146 11.7181 10 11.7181C12.7623 11.7181 14.3129 13.5073 14.3129 14.4678C14.3129 14.5808 14.2564 14.631 14.1058 14.631H5.88799Z" fill="#24D7CC"/>
</svg>
