<svg width="20" height="20" viewBox="0 0 20 20" fill="none" xmlns="http://www.w3.org/2000/svg">
<rect width="20" height="20" rx="4" fill="#DEF8F6"/>
<path fill-rule="evenodd" clip-rule="evenodd" d="M8.74332 4.17232C9.30184 3.20493 10.6982 3.20493 11.2567 4.17232L16.8034 13.7796C17.362 14.747 16.6638 15.9562 15.5467 15.9562H4.45326C3.3362 15.9562 2.63805 14.747 3.19657 13.7796L8.74332 4.17232ZM10.13 4.82281C10.0722 4.72274 9.92778 4.72274 9.87 4.82281L4.32326 14.4301C4.26548 14.5301 4.3377 14.6552 4.45326 14.6552H15.5467C15.6623 14.6552 15.7345 14.5301 15.6767 14.4301L10.13 4.82281Z" fill="#24D7CC"/>
<circle cx="10.1001" cy="13.4042" r="0.600452" fill="#24D7CC"/>
<rect x="9.49969" y="6.29907" width="1.2009" height="5.50415" rx="0.6" fill="#24D7CC"/>
</svg>
