<svg width="20" height="20" viewBox="0 0 20 20" fill="none" xmlns="http://www.w3.org/2000/svg">
<path d="M0 4C0 1.79086 1.79086 0 4 0H16C18.2091 0 20 1.79086 20 4V16C20 18.2091 18.2091 20 16 20H4C1.79086 20 0 18.2091 0 16V4Z" fill="#DEF8F6"/>
<path d="M9.99367 16.2444C13.5532 16.2444 16.4913 13.3064 16.4913 9.75307C16.4913 6.19978 13.547 3.26172 9.98739 3.26172C6.4341 3.26172 3.50232 6.19978 3.50232 9.75307C3.50232 13.3064 6.44038 16.2444 9.99367 16.2444ZM9.99367 14.9512C7.11211 14.9512 4.80812 12.6346 4.80812 9.75307C4.80812 6.87151 7.11211 4.56124 9.98739 4.56124C12.8689 4.56124 15.1855 6.87151 15.1918 9.75307C15.198 12.6346 12.8752 14.9512 9.99367 14.9512ZM6.82961 10.5441H9.98739C10.2762 10.5441 10.4959 10.3244 10.4959 10.0419V5.9361C10.4959 5.6536 10.2762 5.43387 9.98739 5.43387C9.71116 5.43387 9.49144 5.6536 9.49144 5.9361V9.53962H6.82961C6.5471 9.53962 6.32737 9.75935 6.32737 10.0419C6.32737 10.3244 6.5471 10.5441 6.82961 10.5441Z" fill="#24D7CC"/>
</svg>
