<svg width="current" height="current" viewBox="0 0 24 24" fill="none" xmlns="http://www.w3.org/2000/svg">
<rect width="23.9268" height="24" rx="4" fill="#DEF8F6"/>
<path d="M3.98779 11.4563C3.98779 13.1319 4.81529 14.1279 6.36265 14.3432L7.88982 17.7079C8.28002 18.576 8.82496 19 9.63901 19C10.6952 19 11.4555 18.2396 11.2267 17.0485L10.7558 14.5855C12.6597 14.9556 14.5771 15.6487 16.3465 16.6649C16.5887 17.3917 17.2412 17.8627 18.0956 17.8627C19.1788 17.8627 19.939 17.1023 19.939 16.0121V5.85061C19.939 4.76043 19.1788 4 18.0956 4C17.221 4 16.555 4.49798 16.3263 5.25841C14.2474 6.48991 11.59 7.29744 9.47081 7.52624H7.01523C5.05076 7.52624 3.98779 8.55585 3.98779 10.4536V11.4563ZM17.5238 16.0121V5.85061C17.5238 5.51413 17.7525 5.2786 18.0956 5.2786C18.432 5.2786 18.6608 5.51413 18.6608 5.85061V16.0121C18.6608 16.3486 18.432 16.5841 18.0956 16.5841C17.7525 16.5841 17.5238 16.3486 17.5238 16.0121ZM9.67937 13.1386V8.7712C12.0408 8.48856 14.2811 7.81561 16.2455 6.71198V15.2046C14.2407 14.074 12.0206 13.4213 9.67937 13.1386ZM7.01523 13.105C5.76389 13.105 5.26604 12.6339 5.26604 11.4563V10.4536C5.26604 9.27591 5.76389 8.80484 7.01523 8.80484H8.40112V13.105H7.01523ZM9.08734 17.3513L7.68799 14.3836H9.43045C9.45063 14.3836 9.47754 14.3903 9.50445 14.3903L10.0561 17.21C10.1301 17.5666 9.92829 17.7954 9.62555 17.7954C9.35644 17.7954 9.22862 17.6541 9.08734 17.3513Z" fill="#24D7CC"/>
</svg>
