<svg width="20" height="20" viewBox="0 0 20 20" fill="none" xmlns="http://www.w3.org/2000/svg">
<path d="M20.0001 7.92463V9.18341C19.984 9.21497 19.9571 9.24595 19.9536 9.27865C19.718 11.4904 18.6692 13.2673 16.9783 14.6552C14.5007 16.6879 11.6257 17.3552 8.47772 16.9972C8.33953 16.9817 8.16006 16.9926 8.05512 17.0683C6.71338 18.0374 5.38139 19.0202 4.04767 19.999H3.87623C3.66694 19.8475 3.66063 19.6496 3.71969 19.4178C4.00868 18.2732 4.28391 17.1251 4.57921 15.9817C4.62508 15.8038 4.58207 15.7315 4.43414 15.6472C3.56659 15.1549 2.7885 14.5462 2.11648 13.8066C0.820033 12.3814 0.0534045 10.7216 0.00294583 8.78065C-0.060701 6.35201 0.909483 4.35195 2.67267 2.72941C4.3854 1.15278 6.43815 0.314543 8.73861 0.071277C11.2724 -0.19666 13.6526 0.283561 15.824 1.63472C17.816 2.87457 19.226 4.57743 19.7988 6.89936C19.882 7.23671 19.9336 7.58211 19.9995 7.92405L20.0001 7.92463ZM14.7701 8.32108L14.6916 8.29985C14.6916 7.73128 14.6962 7.1627 14.6899 6.59413C14.6859 6.24759 14.4714 6.03875 14.1394 6.03588C13.8074 6.03301 13.5746 6.23669 13.5723 6.58036C13.5643 8.0388 13.5649 9.49782 13.5723 10.9563C13.574 11.2764 13.781 11.4692 14.0924 11.4881C14.4175 11.5082 14.6549 11.3326 14.6864 11.0079C14.7122 10.744 14.7294 10.4697 14.6847 10.211C14.5832 9.62577 15.0173 9.38652 15.3407 9.0417C15.39 9.11284 15.4187 9.15014 15.4439 9.18972C15.8607 9.861 16.2736 10.5351 16.6962 11.203C16.886 11.503 17.2518 11.5794 17.5408 11.4009C17.796 11.2431 17.843 10.9419 17.6601 10.6206C17.6084 10.5294 17.5505 10.4422 17.4949 10.3533C17.0494 9.64585 16.6039 8.93785 16.1532 8.2224C16.2312 8.13347 16.2982 8.05487 16.3676 7.97856C16.7065 7.60448 17.0488 7.23327 17.3843 6.85632C17.5362 6.68592 17.6199 6.4593 17.4531 6.2889C17.324 6.15694 17.1021 6.06686 16.9164 6.05768C16.7902 6.05137 16.6343 6.19767 16.5287 6.3107C16.2363 6.62339 15.964 6.95501 15.6824 7.2786C15.3791 7.62686 15.0746 7.97397 14.7707 8.32166L14.7701 8.32108ZM8.20593 10.281C8.3057 10.5707 8.37393 10.8628 8.50753 11.1215C8.58379 11.269 8.74951 11.4319 8.90318 11.4669C9.37049 11.5748 9.66579 11.1932 9.50065 10.7021C9.02416 9.28726 8.52989 7.87816 8.05054 6.46446C7.9135 6.06055 7.6073 6.02268 7.2518 6.03358C6.83953 6.04563 6.70765 6.11677 6.57806 6.47192C6.07978 7.83914 5.58437 9.20751 5.09182 10.577C5.05054 10.6918 5.02187 10.8163 5.01384 10.9373C4.99549 11.2219 5.13597 11.4193 5.37795 11.4738C5.70077 11.5466 5.93529 11.4319 6.04366 11.1381C6.12623 10.9155 6.18701 10.6837 6.28047 10.4663C6.31315 10.39 6.4112 10.2907 6.48173 10.289C7.05226 10.2747 7.62279 10.281 8.20707 10.281H8.20593ZM4.61877 7.12254C5.03334 7.12254 5.40432 7.13057 5.77473 7.12025C6.09813 7.11107 6.29538 6.92058 6.30398 6.63888C6.31258 6.36176 6.14629 6.18562 5.82749 6.13858C5.75237 6.12768 5.67611 6.12366 5.59985 6.12366C4.57233 6.12251 3.54423 6.12136 2.51671 6.12538C2.38483 6.12538 2.22198 6.11218 2.12909 6.18046C1.99033 6.28316 1.84698 6.43807 1.80512 6.59699C1.75065 6.80182 1.87451 6.99001 2.09182 7.0623C2.2151 7.10303 2.351 7.11852 2.48173 7.12139C2.81086 7.12943 3.14056 7.12426 3.4846 7.12426C3.4846 7.26884 3.4846 7.37269 3.4846 7.47654C3.48173 8.57181 3.47714 9.66708 3.47542 10.7623C3.47485 11.2472 3.66292 11.4858 4.04251 11.4893C4.43356 11.4927 4.6182 11.2655 4.6182 10.7784C4.6182 9.95911 4.6182 9.14038 4.6182 8.32108V7.12369L4.61877 7.12254ZM10.8992 10.3952C10.8992 10.25 10.8992 10.1467 10.8992 10.0435C10.8992 8.92007 10.9009 7.79611 10.898 6.67273C10.8969 6.26537 10.6904 6.03932 10.3298 6.03645C9.97256 6.03358 9.75925 6.25734 9.75753 6.66756C9.75295 8.00036 9.7518 9.33373 9.75753 10.6671C9.75983 11.2064 9.96682 11.4038 10.5081 11.4061C11.2312 11.409 11.9542 11.4072 12.6773 11.4067C13.1818 11.4067 13.4301 11.238 13.4238 10.9029C13.4169 10.5592 13.1778 10.3969 12.675 10.3957C12.0964 10.3946 11.5173 10.3957 10.8986 10.3957L10.8992 10.3952Z" fill="#282828"/>
<path d="M6.60433 9.43828C6.82681 8.74061 7.0447 8.05729 7.29126 7.28503L7.96098 9.43828H6.60376H6.60433Z" fill="#282828"/>
</svg>
