<svg width="14" height="14" viewBox="0 0 14 14" fill="none" xmlns="http://www.w3.org/2000/svg">
<path d="M6.42871 13.4327H7.57757C7.95424 13.4327 8.23675 13.2067 8.31836 12.8363L8.63225 11.5117C8.8457 11.4364 9.0466 11.3548 9.23493 11.2669L10.3963 11.9825C10.704 12.1772 11.0744 12.1458 11.3318 11.8884L12.1416 11.0785C12.399 10.8211 12.4367 10.4382 12.2295 10.1243L11.5201 8.97543C11.608 8.78709 11.6896 8.5862 11.7524 8.39158L13.0896 8.07769C13.46 7.99608 13.6797 7.71357 13.6797 7.3369V6.20687C13.6797 5.83648 13.46 5.54769 13.0896 5.46608L11.7649 5.14591C11.6959 4.92618 11.608 4.73157 11.5326 4.56206L12.242 3.3881C12.4429 3.06792 12.4178 2.71008 12.1479 2.44641L11.3318 1.63656C11.0681 1.398 10.7354 1.35406 10.4152 1.52984L9.23493 2.25807C9.05287 2.17018 8.85198 2.08857 8.63853 2.01324L8.31836 0.669765C8.23675 0.299369 7.95424 0.0733643 7.57757 0.0733643H6.42871C6.04576 0.0733643 5.76325 0.299369 5.68164 0.669765L5.36775 2.00696C5.1543 2.07601 4.94713 2.15763 4.75879 2.2518L3.58482 1.52984C3.26465 1.35406 2.9382 1.39172 2.66825 1.63656L1.85212 2.44641C1.58217 2.71008 1.55706 3.06792 1.75795 3.3881L2.46735 4.56206C2.39202 4.73157 2.31041 4.92618 2.23507 5.14591L0.910435 5.46608C0.540039 5.54769 0.320312 5.83648 0.320312 6.20687V7.3369C0.320312 7.71357 0.540039 7.99608 0.910435 8.07769L2.24763 8.39158C2.31041 8.5862 2.39202 8.78709 2.47991 8.97543L1.77051 10.1243C1.56334 10.4382 1.601 10.8211 1.86468 11.0785L2.66825 11.8884C2.92564 12.1458 3.29604 12.1772 3.60993 11.9825L4.76507 11.2669C4.9534 11.3548 5.1543 11.4364 5.36775 11.5117L5.68164 12.8363C5.76325 13.2067 6.04576 13.4327 6.42871 13.4327ZM7 8.95032C5.79464 8.95032 4.80901 7.95841 4.80901 6.74677C4.80901 5.54769 5.79464 4.56206 7 4.56206C8.21164 4.56206 9.19727 5.54769 9.19727 6.74677C9.19727 7.95841 8.21164 8.95032 7 8.95032Z" fill="#717171"/>
</svg>
