<svg width="24" height="24" viewBox="0 0 24 24" fill="none" xmlns="http://www.w3.org/2000/svg">
<g clip-path="url(#clip0_307_18004)">
<path fill-rule="evenodd" clip-rule="evenodd" d="M11.995 3.965C11.995 3.965 14.985 2.895 17.715 2.895H17.725C20.5149 2.895 23.435 3.965 23.435 3.965V21.105C23.435 21.105 20.455 20.035 17.725 20.035C14.995 20.035 12.005 21.105 12.005 21.105C12.005 21.105 9.07495 20.035 6.28495 20.035C3.49495 20.035 0.574951 21.105 0.574951 21.105V3.965C0.574951 3.965 3.54495 2.895 6.27495 2.895C9.00495 2.895 11.995 3.965 11.995 3.965ZM17.7349 11.715C19.4149 11.715 21.1649 12.285 21.1649 12.285V6.335C21.1649 6.335 19.3749 5.765 17.7349 5.765C16.0949 5.765 14.2949 6.335 14.2949 6.335V12.285C14.2949 12.285 16.0549 11.715 17.7349 11.715ZM3.64784 10.9616C4.31516 10.8153 5.21435 10.665 6.10492 10.665C6.99558 10.665 7.89235 10.8154 8.55738 10.9617C8.89199 11.0353 9.1726 11.109 9.3704 11.1646C9.46938 11.1924 9.54785 11.2157 9.60222 11.2323C9.62942 11.2405 9.65061 11.2472 9.66534 11.2518L9.68256 11.2573L9.68743 11.2588L9.68892 11.2593L9.68942 11.2595L9.68962 11.2596C9.68969 11.2596 9.68977 11.2596 9.53492 11.735C9.38007 12.2104 9.38013 12.2105 9.38018 12.2105L9.37985 12.2104L9.37713 12.2095L9.36436 12.2054C9.35264 12.2017 9.33459 12.1961 9.31066 12.1888C9.26277 12.1742 9.19139 12.153 9.10006 12.1273C8.91723 12.076 8.65534 12.0072 8.34245 11.9383C7.71248 11.7997 6.89426 11.665 6.10492 11.665C5.31549 11.665 4.49467 11.7997 3.86199 11.9384C3.54777 12.0073 3.28455 12.0762 3.10072 12.1275C3.00888 12.1532 2.93709 12.1744 2.8889 12.189C2.86481 12.1963 2.84664 12.202 2.83483 12.2057L2.82195 12.2097L2.8192 12.2106L2.81886 12.2107C2.81891 12.2107 2.81897 12.2107 2.66492 11.735C2.51086 11.2593 2.51093 11.2593 2.51101 11.2593L2.5112 11.2592L2.51171 11.2591L2.51319 11.2586L2.51808 11.257L2.53536 11.2516C2.55015 11.2469 2.57143 11.2403 2.59875 11.232C2.65337 11.2155 2.7322 11.1922 2.83161 11.1644C3.03028 11.1089 3.31206 11.0352 3.64784 10.9616ZM3.64784 13.5816C4.31516 13.4353 5.21435 13.285 6.10492 13.285C6.99558 13.285 7.89235 13.4353 8.55738 13.5817C8.89199 13.6553 9.1726 13.729 9.3704 13.7846C9.46938 13.8124 9.54785 13.8357 9.60222 13.8523C9.62942 13.8605 9.65061 13.8672 9.66534 13.8718L9.68256 13.8773L9.68743 13.8788L9.68892 13.8793L9.68942 13.8795L9.68962 13.8796C9.68969 13.8796 9.68977 13.8796 9.53492 14.355C9.38007 14.8304 9.38013 14.8305 9.38018 14.8305L9.37985 14.8304L9.37713 14.8295L9.36436 14.8254C9.35264 14.8217 9.33459 14.8161 9.31066 14.8088C9.26277 14.7942 9.19139 14.773 9.10006 14.7473C8.91723 14.696 8.65534 14.6272 8.34245 14.5583C7.71248 14.4197 6.89426 14.285 6.10492 14.285C5.31549 14.285 4.49467 14.4197 3.86199 14.5584C3.54777 14.6273 3.28455 14.6961 3.10072 14.7475C3.00888 14.7732 2.93709 14.7944 2.8889 14.809C2.86481 14.8163 2.84664 14.822 2.83483 14.8257L2.82195 14.8297L2.8192 14.8306L2.81886 14.8307C2.81891 14.8307 2.81897 14.8307 2.66492 14.355C2.51086 13.8793 2.51093 13.8793 2.51101 13.8793L2.5112 13.8792L2.51171 13.8791L2.51319 13.8786L2.51808 13.877L2.53536 13.8716C2.55015 13.8669 2.57143 13.8603 2.59875 13.852C2.65337 13.8355 2.7322 13.8122 2.83161 13.7844C3.03028 13.7289 3.31206 13.6552 3.64784 13.5816ZM11.6749 20.845V3.96501H12.1749V20.845H11.6749Z" fill="#282828"/>
</g>
<defs>
<clipPath id="clip0_307_18004">
<rect width="23.85" height="19.21" fill="white" transform="translate(0.0749512 2.395)"/>
</clipPath>
</defs>
</svg>
