<svg width="24" height="24" viewBox="0 0 24 24" fill="none" xmlns="http://www.w3.org/2000/svg">
<g clip-path="url(#clip0_307_18006)">
<path d="M11.9949 9.79C14.1875 9.79 15.9649 8.01257 15.9649 5.82C15.9649 3.62743 14.1875 1.85 11.9949 1.85C9.80233 1.85 8.0249 3.62743 8.0249 5.82C8.0249 8.01257 9.80233 9.79 11.9949 9.79Z" fill="#282828" stroke="#282828" stroke-linejoin="round"/>
<path d="M15.225 10.68C14.465 11.27 13.305 11.66 11.995 11.66C10.685 11.66 9.53496 11.27 8.76496 10.68C5.58496 12.5 3.33496 16.93 3.33496 22.12V22.15H20.665V22.12C20.665 16.93 18.415 12.5 15.225 10.67V10.68Z" fill="#282828" stroke="#282828" stroke-linejoin="round"/>
</g>
<defs>
<clipPath id="clip0_307_18006">
<rect width="18.33" height="21.3" fill="white" transform="translate(2.83496 1.35)"/>
</clipPath>
</defs>
</svg>
