<svg width="24" height="25" viewBox="0 0 24 25" fill="none" xmlns="http://www.w3.org/2000/svg">
<g clip-path="url(#clip0_307_18003)">
<path fill-rule="evenodd" clip-rule="evenodd" d="M11.9999 2.58736L22.8099 14.5174H19.5199V23.3774H4.48994V14.5174H1.18994L11.9999 2.58736ZM7.79993 12.9874H16.2099V19.5974H7.79993V12.9874Z" fill="#282828"/>
<path d="M22.8099 14.5174V15.0174C23.0077 15.0174 23.1869 14.9008 23.267 14.72C23.3472 14.5392 23.3132 14.3282 23.1805 14.1816L22.8099 14.5174ZM11.9999 2.58736L12.3705 2.25162C12.2757 2.14702 12.1411 2.08736 11.9999 2.08736C11.8588 2.08736 11.7242 2.14702 11.6294 2.25162L11.9999 2.58736ZM19.5199 14.5174V14.0174C19.2438 14.0174 19.0199 14.2412 19.0199 14.5174H19.5199ZM19.5199 23.3774V23.8774C19.7961 23.8774 20.0199 23.6535 20.0199 23.3774H19.5199ZM4.48994 23.3774H3.98994C3.98994 23.6535 4.2138 23.8774 4.48994 23.8774V23.3774ZM4.48994 14.5174H4.98994C4.98994 14.2412 4.76608 14.0174 4.48994 14.0174V14.5174ZM1.18994 14.5174L0.819424 14.1816C0.686634 14.3282 0.652697 14.5392 0.732849 14.72C0.813001 14.9008 0.99218 15.0174 1.18994 15.0174L1.18994 14.5174ZM16.2099 12.9874H16.7099C16.7099 12.7112 16.4861 12.4874 16.2099 12.4874V12.9874ZM7.79993 12.9874V12.4874C7.52378 12.4874 7.29993 12.7112 7.29993 12.9874H7.79993ZM16.2099 19.5974V20.0974C16.4861 20.0974 16.7099 19.8735 16.7099 19.5974H16.2099ZM7.79993 19.5974H7.29993C7.29993 19.8735 7.52378 20.0974 7.79993 20.0974V19.5974ZM23.1805 14.1816L12.3705 2.25162L11.6294 2.92309L22.4394 14.8531L23.1805 14.1816ZM19.5199 15.0174H22.8099V14.0174H19.5199V15.0174ZM20.0199 23.3774V14.5174H19.0199V23.3774H20.0199ZM4.48994 23.8774H19.5199V22.8774H4.48994V23.8774ZM3.98994 14.5174V23.3774H4.98994V14.5174H3.98994ZM1.18994 15.0174H4.48994V14.0174H1.18994V15.0174ZM11.6294 2.25162L0.819424 14.1816L1.56046 14.8531L12.3705 2.92309L11.6294 2.25162ZM16.2099 12.4874H7.79993V13.4874H16.2099V12.4874ZM16.7099 19.5974V12.9874H15.7099V19.5974H16.7099ZM7.79993 20.0974H16.2099V19.0974H7.79993V20.0974ZM7.29993 12.9874V19.5974H8.29993V12.9874H7.29993Z" fill="#282828"/>
</g>
<defs>
<clipPath id="clip0_307_18003">
<rect width="22.62" height="21.79" fill="white" transform="translate(0.689941 2.08736)"/>
</clipPath>
</defs>
</svg>
