<svg width="24" height="25" viewBox="0 0 24 25" fill="none" xmlns="http://www.w3.org/2000/svg">
<g clip-path="url(#clip0_307_17998)">
<path d="M22.8099 13.8736V14.3736C23.0077 14.3736 23.1869 14.2571 23.267 14.0763C23.3472 13.8955 23.3132 13.6844 23.1805 13.5379L22.8099 13.8736ZM11.9999 1.94362L12.3705 1.60789C12.2757 1.50328 12.1411 1.44362 11.9999 1.44362C11.8588 1.44362 11.7242 1.50328 11.6294 1.60789L11.9999 1.94362ZM19.5199 13.8736V13.3736C19.2438 13.3736 19.0199 13.5975 19.0199 13.8736H19.5199ZM19.5199 22.7336V23.2336C19.7961 23.2336 20.0199 23.0098 20.0199 22.7336H19.5199ZM4.48994 22.7336H3.98994C3.98994 23.0098 4.2138 23.2336 4.48994 23.2336V22.7336ZM4.48994 13.8736H4.98994C4.98994 13.5975 4.76608 13.3736 4.48994 13.3736V13.8736ZM1.18994 13.8736L0.819424 13.5379C0.686634 13.6844 0.652697 13.8955 0.732849 14.0763C0.813001 14.2571 0.99218 14.3736 1.18994 14.3736L1.18994 13.8736ZM16.2099 12.3436H16.7099C16.7099 12.0675 16.4861 11.8436 16.2099 11.8436V12.3436ZM7.79993 12.3436V11.8436C7.52378 11.8436 7.29993 12.0675 7.29993 12.3436H7.79993ZM16.2099 18.9536V19.4536C16.4861 19.4536 16.7099 19.2298 16.7099 18.9536H16.2099ZM7.79993 18.9536H7.29993C7.29993 19.2298 7.52378 19.4536 7.79993 19.4536V18.9536ZM23.1805 13.5379L12.3705 1.60789L11.6294 2.27935L22.4394 14.2094L23.1805 13.5379ZM19.5199 14.3736H22.8099V13.3736H19.5199V14.3736ZM20.0199 22.7336V13.8736H19.0199V22.7336H20.0199ZM4.48994 23.2336H19.5199V22.2336H4.48994V23.2336ZM3.98994 13.8736V22.7336H4.98994V13.8736H3.98994ZM1.18994 14.3736H4.48994V13.3736H1.18994V14.3736ZM11.6294 1.60789L0.819424 13.5379L1.56046 14.2094L12.3705 2.27935L11.6294 1.60789ZM16.2099 11.8436H7.79993V12.8436H16.2099V11.8436ZM16.7099 18.9536V12.3436H15.7099V18.9536H16.7099ZM7.79993 19.4536H16.2099V18.4536H7.79993V19.4536ZM7.29993 12.3436V18.9536H8.29993V12.3436H7.29993Z" fill="#E4E4E4"/>
</g>
<defs>
<clipPath id="clip0_307_17998">
<rect width="22.62" height="21.79" fill="white" transform="translate(0.689941 1.44362)"/>
</clipPath>
</defs>
</svg>
