<svg width="24" height="24" viewBox="0 0 24 24" fill="none" xmlns="http://www.w3.org/2000/svg">
<g clip-path="url(#clip0_307_18000)">
<path d="M17.715 2.895C14.985 2.895 11.995 3.965 11.995 3.965C11.995 3.965 9.00495 2.895 6.27495 2.895C3.54495 2.895 0.574951 3.965 0.574951 3.965V21.105C0.574951 21.105 3.49495 20.035 6.28495 20.035C9.07495 20.035 12.005 21.105 12.005 21.105C12.005 21.105 14.995 20.035 17.725 20.035C20.455 20.035 23.435 21.105 23.435 21.105V3.965C23.435 3.965 20.515 2.895 17.725 2.895H17.715Z" stroke="#E4E4E4" stroke-linejoin="round"/>
<path d="M21.1649 12.285C21.1649 12.285 19.4149 11.715 17.7349 11.715C16.0549 11.715 14.2949 12.285 14.2949 12.285V6.335C14.2949 6.335 16.0949 5.765 17.7349 5.765C19.3749 5.765 21.1649 6.335 21.1649 6.335V12.285Z" stroke="#E4E4E4" stroke-linejoin="round"/>
<path d="M9.53492 11.735C9.53492 11.735 7.78492 11.165 6.10492 11.165C4.42492 11.165 2.66492 11.735 2.66492 11.735" stroke="#E4E4E4" stroke-linejoin="round"/>
<path d="M9.53492 14.355C9.53492 14.355 7.78492 13.785 6.10492 13.785C4.42492 13.785 2.66492 14.355 2.66492 14.355" stroke="#E4E4E4" stroke-linejoin="round"/>
<path d="M11.9249 3.96501V20.845" stroke="#E4E4E4" stroke-linejoin="round"/>
</g>
<defs>
<clipPath id="clip0_307_18000">
<rect width="23.85" height="19.21" fill="white" transform="translate(0.0749512 2.395)"/>
</clipPath>
</defs>
</svg>
