<svg width="24" height="24" viewBox="0 0 24 24" fill="none" xmlns="http://www.w3.org/2000/svg">
<g opacity="0.8">
<path d="M6.54577 12.5625H11.1412V17.1579C11.1412 17.625 11.5254 18.0167 12 18.0167C12.4746 18.0167 12.8588 17.625 12.8588 17.1579V12.5625H17.4543C17.9213 12.5625 18.3131 12.1783 18.3131 11.7037C18.3131 11.2291 17.9213 10.8449 17.4543 10.8449H12.8588V6.24944C12.8588 5.78237 12.4746 5.39062 12 5.39062C11.5254 5.39062 11.1412 5.78237 11.1412 6.24944V10.8449H6.54577C6.07869 10.8449 5.68695 11.2291 5.68695 11.7037C5.68695 12.1783 6.07869 12.5625 6.54577 12.5625Z" fill="#707070"/>
</g>
</svg>
