<svg width="20" height="20" viewBox="0 0 20 20" fill="none" xmlns="http://www.w3.org/2000/svg">
<path d="M5.67456 15.6292H14.3192C15.6815 15.6292 16.3909 14.9261 16.3909 13.5826V5.94238C16.3909 4.59891 15.6815 3.89578 14.3192 3.89578H5.67456C4.31853 3.89578 3.60913 4.59263 3.60913 5.94238V13.5826C3.60913 14.9261 4.31853 15.6292 5.67456 15.6292ZM5.66828 14.3799C5.14722 14.3799 4.85843 14.1099 4.85843 13.5575V7.7818C4.85843 7.22935 5.14722 6.9594 5.66828 6.9594H14.3255C14.8466 6.9594 15.1354 7.22935 15.1354 7.7818V13.5575C15.1354 14.1099 14.8466 14.3799 14.3255 14.3799H5.66828ZM8.7884 9.12527H9.1588C9.3848 9.12527 9.46013 9.05622 9.46013 8.83649V8.46609C9.46013 8.24009 9.3848 8.17103 9.1588 8.17103H8.7884C8.5624 8.17103 8.48706 8.24009 8.48706 8.46609V8.83649C8.48706 9.05622 8.5624 9.12527 8.7884 9.12527ZM10.8413 9.12527H11.2117C11.4314 9.12527 11.5067 9.05622 11.5067 8.83649V8.46609C11.5067 8.24009 11.4314 8.17103 11.2117 8.17103H10.8413C10.6153 8.17103 10.5399 8.24009 10.5399 8.46609V8.83649C10.5399 9.05622 10.6153 9.12527 10.8413 9.12527ZM12.8879 9.12527H13.2583C13.4843 9.12527 13.5596 9.05622 13.5596 8.83649V8.46609C13.5596 8.24009 13.4843 8.17103 13.2583 8.17103H12.8879C12.6681 8.17103 12.5928 8.24009 12.5928 8.46609V8.83649C12.5928 9.05622 12.6681 9.12527 12.8879 9.12527ZM6.7418 11.1468H7.10592C7.33193 11.1468 7.40726 11.0777 7.40726 10.8517V10.4813C7.40726 10.2616 7.33193 10.1925 7.10592 10.1925H6.7418C6.5158 10.1925 6.44046 10.2616 6.44046 10.4813V10.8517C6.44046 11.0777 6.5158 11.1468 6.7418 11.1468ZM8.7884 11.1468H9.1588C9.3848 11.1468 9.46013 11.0777 9.46013 10.8517V10.4813C9.46013 10.2616 9.3848 10.1925 9.1588 10.1925H8.7884C8.5624 10.1925 8.48706 10.2616 8.48706 10.4813V10.8517C8.48706 11.0777 8.5624 11.1468 8.7884 11.1468ZM10.8413 11.1468H11.2117C11.4314 11.1468 11.5067 11.0777 11.5067 10.8517V10.4813C11.5067 10.2616 11.4314 10.1925 11.2117 10.1925H10.8413C10.6153 10.1925 10.5399 10.2616 10.5399 10.4813V10.8517C10.5399 11.0777 10.6153 11.1468 10.8413 11.1468ZM12.8879 11.1468H13.2583C13.4843 11.1468 13.5596 11.0777 13.5596 10.8517V10.4813C13.5596 10.2616 13.4843 10.1925 13.2583 10.1925H12.8879C12.6681 10.1925 12.5928 10.2616 12.5928 10.4813V10.8517C12.5928 11.0777 12.6681 11.1468 12.8879 11.1468ZM6.7418 13.162H7.10592C7.33193 13.162 7.40726 13.0929 7.40726 12.8732V12.5028C7.40726 12.2768 7.33193 12.2077 7.10592 12.2077H6.7418C6.5158 12.2077 6.44046 12.2768 6.44046 12.5028V12.8732C6.44046 13.0929 6.5158 13.162 6.7418 13.162ZM8.7884 13.162H9.1588C9.3848 13.162 9.46013 13.0929 9.46013 12.8732V12.5028C9.46013 12.2768 9.3848 12.2077 9.1588 12.2077H8.7884C8.5624 12.2077 8.48706 12.2768 8.48706 12.5028V12.8732C8.48706 13.0929 8.5624 13.162 8.7884 13.162ZM10.8413 13.162H11.2117C11.4314 13.162 11.5067 13.0929 11.5067 12.8732V12.5028C11.5067 12.2768 11.4314 12.2077 11.2117 12.2077H10.8413C10.6153 12.2077 10.5399 12.2768 10.5399 12.5028V12.8732C10.5399 13.0929 10.6153 13.162 10.8413 13.162Z" fill="#1C1C1E"/>
</svg>
