<svg width="20" height="20" viewBox="0 0 20 20" fill="none" xmlns="http://www.w3.org/2000/svg">
<path d="M10 9.89118C11.5193 9.89118 12.7497 8.54771 12.7497 6.9029C12.7497 5.2832 11.5193 3.99623 10 3.99623C8.48704 3.99623 7.24402 5.30203 7.2503 6.91546C7.25657 8.55399 8.48077 9.89118 10 9.89118ZM10 8.79255C9.13367 8.79255 8.39915 7.97014 8.39915 6.91546C8.39287 5.88588 9.12739 5.09486 10 5.09486C10.8789 5.09486 11.6009 5.87332 11.6009 6.9029C11.6009 7.95759 10.8726 8.79255 10 8.79255ZM6.08261 15.7296H13.9112C14.9972 15.7296 15.5183 15.3843 15.5183 14.6436C15.5183 12.9171 13.365 10.6194 10 10.6194C6.63506 10.6194 4.47546 12.9171 4.47546 14.6436C4.47546 15.3843 4.99653 15.7296 6.08261 15.7296ZM5.88799 14.631C5.73732 14.631 5.68082 14.5808 5.68082 14.4678C5.68082 13.5073 7.23146 11.7181 10 11.7181C12.7623 11.7181 14.3129 13.5073 14.3129 14.4678C14.3129 14.5808 14.2564 14.631 14.1058 14.631H5.88799Z" fill="#1C1C1E"/>
</svg>
