<svg width="20" height="20" viewBox="0 0 20 20" fill="none" xmlns="http://www.w3.org/2000/svg">
<path fill-rule="evenodd" clip-rule="evenodd" d="M8.15355 3.92727C8.75198 2.89078 10.248 2.89078 10.8464 3.92727L16.7894 14.2207C17.3878 15.2572 16.6398 16.5529 15.4429 16.5529H3.55706C2.36022 16.5529 1.6122 15.2572 2.21062 14.2207L8.15355 3.92727ZM9.63929 4.62423C9.57738 4.517 9.42262 4.517 9.36071 4.62423L3.41777 14.9177C3.35587 15.0249 3.43325 15.159 3.55706 15.159H15.4429C15.5667 15.159 15.6441 15.0249 15.5822 14.9177L9.63929 4.62423Z" fill="#1C1C1E"/>
<circle cx="9.60721" cy="13.8187" r="0.643342" fill="#1C1C1E"/>
<rect x="8.96387" y="6.20593" width="1.28668" height="5.8973" rx="0.6" fill="#1C1C1E"/>
</svg>
